<svg width="460" height="124" viewBox="0 0 460 124" fill="none" xmlns="http://www.w3.org/2000/svg">
<rect width="460" height="124" rx="5" fill="#E6F2FF"/>
<path d="M206.252 78.3288L206.217 78.3634C205.772 77.3895 205.49 76.287 205.377 75.0659C205.495 76.2673 205.807 77.3549 206.252 78.3288Z" fill="#293363"/>
<path d="M216.831 64.1055C218.997 64.1055 220.752 62.3505 220.752 60.1851C220.752 58.0197 218.997 56.2646 216.831 56.2646C214.666 56.2646 212.911 58.0197 212.911 60.1851C212.911 62.3505 214.666 64.1055 216.831 64.1055Z" fill="#293363"/>
<path d="M228.682 50.2974H214.869C208.872 50.2974 205.298 53.8717 205.298 59.8686V73.6767C205.298 75.4713 205.609 77.0385 206.222 78.3585C207.641 81.4879 210.671 83.2529 214.874 83.2529H228.682C234.679 83.2529 238.258 79.6785 238.258 73.6767V69.9045V59.8686C238.253 53.8717 234.679 50.2974 228.682 50.2974ZM236.34 67.754C234.98 66.5872 232.79 66.5872 231.431 67.754L224.193 73.9634C222.833 75.1302 220.643 75.1302 219.284 73.9634L218.69 73.474C217.454 72.3962 215.487 72.2924 214.098 73.2317L207.591 77.6021C207.211 76.6281 206.983 75.496 206.983 74.176V59.5917C206.983 54.6825 209.574 52.092 214.483 52.092H229.067C233.977 52.092 236.567 54.6825 236.567 59.5917V67.9419L236.34 67.754Z" fill="#293363"/>
</svg>
