<svg width="278" height="56" viewBox="0 0 278 56" fill="none" xmlns="http://www.w3.org/2000/svg">
<g clip-path="url(#clip0_38_1486)">
<path fill-rule="evenodd" clip-rule="evenodd" d="M22.8332 3.30485e-05C27.1201 3.6872 32.4787 6.58854 39.4875 8.28078C31.9126 14.7989 24.3371 21.3164 16.7621 27.8343C11.1749 24.1476 5.58719 20.4613 0 16.7755C0 14.1042 0 11.433 0 8.76143C8.0279 9.02005 15.6644 6.29472 22.8332 -0.000244141V3.30485e-05Z" fill="#0473E9"/>
<path fill-rule="evenodd" clip-rule="evenodd" d="M0.214355 20.7016L16.9765 41.8578L53.0265 0.906738L16.8564 31.4918L0.214355 20.7016Z" fill="#5C6670"/>
<path fill-rule="evenodd" clip-rule="evenodd" d="M0.094196 25.2809C5.65491 32.3736 11.2151 39.4655 16.7761 46.5576C26.4238 35.6189 36.0714 24.6799 45.7197 13.7412C45.6324 18.4471 46.1077 27.8817 44.816 31.9794C41.4131 42.7784 32.5107 50.0574 22.8993 55.9998C12.2537 49.966 -0.143853 38.4912 0.094196 25.2806V25.2809Z" fill="#0473E9"/>
<path d="M80.0552 18.6953L74.6943 20.3737C74.4621 19.0241 73.7842 17.7903 72.6592 16.6716C71.5339 15.5526 69.9124 14.9932 67.7945 14.9932C66.0406 14.9932 64.5925 15.4869 63.4508 16.474C62.3093 17.461 61.7379 18.6457 61.7379 20.0281C61.7379 22.4302 63.1116 23.9273 65.8583 24.5199L70.9215 25.5566C73.966 26.1487 76.3158 27.3497 77.9701 29.1598C79.6251 30.9698 80.4527 33.1255 80.4527 35.6266C80.4527 38.5224 79.3357 41.0152 77.1019 43.1052C74.868 45.1949 71.8319 46.2399 67.9927 46.2399C63.8567 46.2399 60.6299 45.1619 58.3132 43.0062C55.9966 40.8511 54.6892 38.342 54.3915 35.4789L59.9511 33.8992C60.1499 35.8736 60.9438 37.5356 62.3339 38.8847C63.724 40.2343 65.6102 40.9085 67.9924 40.9085C70.0445 40.9085 71.6245 40.4564 72.7333 39.5513C73.8422 38.6463 74.3963 37.486 74.3963 36.0712C74.3963 34.9198 73.9827 33.9238 73.1551 33.0845C72.3275 32.2455 71.1696 31.6614 69.6799 31.3321L64.7163 30.296C61.9695 29.7366 59.7936 28.6007 58.1886 26.8899C56.5836 25.1782 55.7814 23.0397 55.7814 20.4727C55.7814 17.5439 56.9557 15.0262 59.3058 12.9201C61.6551 10.814 64.4682 9.76099 67.7446 9.76099C71.484 9.76099 74.3467 10.658 76.3322 12.4508C78.3177 14.2445 79.559 16.3262 80.0552 18.6956V18.6953ZM89.0958 30.8382H100.96C100.893 29.3247 100.355 28.058 99.3464 27.0374C98.3373 26.017 96.8892 25.507 95.0027 25.507C93.282 25.507 91.8921 26.042 90.8332 27.1114C89.7742 28.1808 89.1953 29.4231 89.0958 30.8382ZM101.605 37.1074L106.47 38.6377C105.775 40.8422 104.476 42.6606 102.573 44.0922C100.67 45.5234 98.3287 46.2396 95.549 46.2396C92.1073 46.2396 89.1866 45.0713 86.7875 42.7343C84.3883 40.3981 83.1886 37.2717 83.1886 33.3556C83.1886 29.6704 84.3554 26.6424 86.6882 24.2729C89.021 21.9041 91.7762 20.7194 94.9531 20.7194C98.6595 20.7194 101.555 21.8464 103.64 24.1005C105.725 26.3546 106.767 29.3907 106.767 33.2079C106.767 34.2282 106.718 34.8372 106.618 35.0343H88.9466C89.013 36.8443 89.6828 38.342 90.9572 39.5267C92.2314 40.7114 93.7614 41.3034 95.5487 41.3034C98.6593 41.3034 100.678 39.9048 101.605 37.1076L101.605 37.1074ZM122.063 26.0007C120.209 26.0007 118.638 26.6673 117.347 28C116.056 29.3328 115.411 31.1508 115.411 33.4546C115.411 35.7907 116.064 37.634 117.372 38.9831C118.679 40.3322 120.275 41.0069 122.162 41.0069C123.85 41.0069 125.198 40.5539 126.208 39.6492C127.217 38.7442 127.887 37.7161 128.218 36.5641L133.281 38.3905C132.62 40.5298 131.337 42.3723 129.434 43.919C127.531 45.4663 125.107 46.2396 122.162 46.2396C118.621 46.2396 115.651 45.0217 113.252 42.5863C110.852 40.1514 109.653 37.1074 109.653 33.4546C109.653 29.7688 110.836 26.7244 113.202 24.3223C115.568 21.9202 118.505 20.7191 122.013 20.7191C125.025 20.7191 127.482 21.4925 129.385 23.0389C131.288 24.5856 132.52 26.4444 133.083 28.6171L127.92 30.4922C127.589 29.2416 126.952 28.1805 126.009 27.3087C125.066 26.4364 123.751 26.0004 122.063 26.0004V26.0007ZM153.044 42.8335C152.482 43.8866 151.563 44.7093 150.29 45.3013C149.015 45.894 147.65 46.19 146.194 46.19C143.381 46.19 141.156 45.285 139.517 43.4749C137.879 41.6649 137.06 39.3775 137.06 36.6137V21.4592H142.819V35.577C142.819 37.1894 143.216 38.5058 144.01 39.5264C144.805 40.5462 146.029 41.0562 147.684 41.0562C149.305 41.0562 150.554 40.5625 151.432 39.5755C152.308 38.5884 152.747 37.2886 152.747 35.6762V21.4595H158.505V41.1058C158.505 42.5538 158.588 44.0185 158.753 45.4993H153.244C153.111 44.7755 153.045 43.8869 153.045 42.8338L153.044 42.8335ZM179.359 21.3115V27.136C178.697 27.0376 178.069 26.988 177.473 26.988C173.138 26.988 170.97 29.3411 170.97 34.0469V45.4993H165.212V21.4598H170.821V25.3099C171.384 24.0268 172.294 23.0145 173.552 22.2744C174.809 21.5338 176.232 21.1637 177.82 21.1637C178.35 21.1637 178.863 21.2133 179.359 21.3117L179.359 21.3115ZM187.208 30.8382H199.072C199.006 29.3247 198.468 28.058 197.459 27.0374C196.45 26.017 195.002 25.507 193.115 25.507C191.395 25.507 190.005 26.042 188.946 27.1114C187.887 28.1808 187.308 29.4231 187.208 30.8382ZM199.718 37.1074L204.582 38.6377C203.887 40.8422 202.589 42.6606 200.686 44.0922C198.783 45.5234 196.441 46.2396 193.662 46.2396C190.22 46.2396 187.299 45.0713 184.9 42.7343C182.501 40.3981 181.301 37.2717 181.301 33.3556C181.301 29.6704 182.468 26.6424 184.801 24.2729C187.134 21.9041 189.889 20.7194 193.066 20.7194C196.772 20.7194 199.668 21.8464 201.753 24.1005C203.838 26.3546 204.88 29.3907 204.88 33.2079C204.88 34.2282 204.83 34.8372 204.731 35.0343H187.059C187.126 36.8443 187.795 38.342 189.07 39.5267C190.344 40.7114 191.874 41.3034 193.661 41.3034C196.772 41.3034 198.791 39.9048 199.717 37.1076L199.718 37.1074Z" fill="#0473E9"/>
<path d="M225.802 44.7647L218.716 31.5233H214.531V44.7647H208.777V11.2356H221.712C224.883 11.2356 227.435 12.2052 229.369 14.1441C231.302 16.0831 232.269 18.5027 232.269 21.4029C232.269 23.7992 231.588 25.8487 230.225 27.5509C228.862 29.2532 227.007 30.3883 224.661 30.9559L232.269 44.7647H225.802H225.802ZM214.531 26.5107H220.666C222.41 26.5107 223.813 26.0455 224.875 25.1156C225.937 24.1856 226.468 22.9477 226.468 21.4029C226.468 19.8265 225.937 18.5736 224.875 17.6437C223.813 16.7137 222.41 16.2486 220.666 16.2486H214.531V26.5109V26.5107ZM242.39 44.7647H236.588V11.2356H242.39V44.7647ZM271.77 44.7647L268.584 36.3467H254.317L251.178 44.7647H245.139L258.264 11.2356H264.874L278 44.7647H271.77ZM261.45 17.3837L256.314 31.0976H266.586L261.45 17.3837Z" fill="#5C6670"/>
</g>
<defs>
<clipPath id="clip0_38_1486">
<rect width="278" height="56" fill="white"/>
</clipPath>
</defs>
</svg>
