<svg width="62" height="83" viewBox="0 0 62 83" fill="none" xmlns="http://www.w3.org/2000/svg">
<path opacity="0.1" fill-rule="evenodd" clip-rule="evenodd" d="M62 9.56999C60.7023 8.71096 59.1464 8.21072 57.4737 8.21072H51.3157V2.05263C51.3157 0.919004 50.3968 0 49.2631 0C48.1294 0 47.2105 0.919004 47.2105 2.05263V8.21072H18.4737V2.05263C18.4737 0.919004 17.5547 0 16.421 0C15.2874 0 14.3684 0.919004 14.3684 2.05263V8.21072H8.21053C3.67598 8.21072 0 11.8867 0 16.4212V65.6844C0 70.2189 3.67598 73.8949 8.21053 73.8949H47.3548C50.1941 78.8031 55.5009 82.1053 61.5789 82.1053C61.7197 82.1053 61.8601 82.1035 62 82.1V77.9929C61.8602 77.9976 61.7198 78 61.5789 78C54.7771 78 49.2631 72.486 49.2631 65.6842C49.2631 58.8824 54.7771 53.3684 61.5789 53.3684C61.7198 53.3684 61.8602 53.3708 62 53.3755V9.56999ZM62 55.8313C61.8641 55.8029 61.7232 55.788 61.5789 55.788C60.4452 55.788 59.5263 56.707 59.5263 57.8407V68.811L62 70.5281V55.8313ZM61.5789 30.7897V49.2634C52.5098 49.2634 45.1579 56.6151 45.1579 65.6842C45.1579 67.2186 45.3683 68.7039 45.7619 70.1127C45.7319 70.0055 45.703 69.8978 45.6752 69.7897H8.21053C5.94325 69.7897 4.10526 67.9517 4.10526 65.6844V30.7897H61.5789ZM4.10526 26.6844H61.5789V16.4212C61.5789 14.1539 59.741 12.316 57.4737 12.316H51.3157V14.3684C51.3157 15.5021 50.3968 16.4211 49.2631 16.4211C48.1294 16.4211 47.2105 15.5021 47.2105 14.3684V12.316H18.4737V14.3684C18.4737 15.5021 17.5547 16.4211 16.421 16.4211C15.2874 16.4211 14.3684 15.5021 14.3684 14.3684V12.316H8.21053C5.94325 12.316 4.10526 14.1539 4.10526 16.4212V26.6844ZM14.3684 39.0001H18.4736V43.1054H14.3684V39.0001ZM10.2631 39.0001C10.2631 36.7328 12.101 34.8948 14.3684 34.8948H18.4736C20.741 34.8948 22.5789 36.7328 22.5789 39.0001V43.1054C22.5789 45.3727 20.741 47.2106 18.4736 47.2106H14.3684C12.101 47.2106 10.2631 45.3727 10.2631 43.1054V39.0001ZM34.8947 39.0001H30.7894V43.1054H34.8947V39.0001ZM30.7894 34.8948C28.5221 34.8948 26.6842 36.7328 26.6842 39.0001V43.1054C26.6842 45.3727 28.5221 47.2106 30.7894 47.2106H34.8947C37.162 47.2106 39 45.3727 39 43.1054V39.0001C39 36.7328 37.162 34.8948 34.8947 34.8948H30.7894ZM47.2105 39.0001H51.3158V43.1054H47.2105V39.0001ZM43.1053 39.0001C43.1053 36.7328 44.9432 34.8948 47.2105 34.8948H51.3158C53.5831 34.8948 55.4211 36.7328 55.4211 39.0001V43.1054C55.4211 45.3727 53.5831 47.2106 51.3158 47.2106H47.2105C44.9432 47.2106 43.1053 45.3727 43.1053 43.1054V39.0001ZM18.4736 55.4212H14.3684V59.5265H18.4736V55.4212ZM14.3684 51.316C12.101 51.316 10.2631 53.1539 10.2631 55.4212V59.5265C10.2631 61.7938 12.101 63.6318 14.3684 63.6318H18.4736C20.741 63.6318 22.5789 61.7938 22.5789 59.5265V55.4212C22.5789 53.1539 20.741 51.316 18.4736 51.316H14.3684ZM30.7894 55.4212H34.8947V59.5265H30.7894V55.4212ZM26.6842 55.4212C26.6842 53.1539 28.5221 51.316 30.7894 51.316H34.8947C37.162 51.316 39 53.1539 39 55.4212V59.5265C39 61.7938 37.162 63.6318 34.8947 63.6318H30.7894C28.5221 63.6318 26.6842 61.7938 26.6842 59.5265V55.4212Z" fill="#0473E9"/>
</svg>
