<svg width="55" height="72" viewBox="0 0 55 72" fill="none" xmlns="http://www.w3.org/2000/svg">
<path opacity="0.1" fill-rule="evenodd" clip-rule="evenodd" d="M55 14.5831C53.7521 11.9469 52.0742 9.56245 50.0017 7.48249C47.6654 5.13804 44.9433 3.29677 41.9111 2.00988C38.7691 0.676315 35.4345 0 32 0C28.5655 0 25.2309 0.676315 22.0889 2.00988C19.0567 3.29689 16.3347 5.13804 13.9983 7.48249C11.662 9.82695 9.82706 12.5586 8.54466 15.6014C7.21575 18.7544 6.54179 22.1006 6.54179 25.547V29.7989C2.87385 30.1658 0 33.2806 0 37.0563V64.7061C0 68.7279 3.26065 72 7.26838 72H55V66.6256H7.26851C6.21213 66.6256 5.35577 65.766 5.35577 64.7061V37.0563C5.35577 36.2545 5.84596 35.5678 6.54204 35.2807C6.76607 35.1883 7.01122 35.1369 7.26863 35.1369H55V14.5831ZM32.0001 5.37439C20.8979 5.37439 11.8977 14.406 11.8977 25.547V29.7625H52.1026V25.547C52.1026 14.4061 43.1023 5.37439 32.0001 5.37439ZM24.215 45.6831C24.215 41.3755 27.7073 37.8708 32 37.8708C36.2928 37.8708 39.7851 41.3755 39.7849 45.6831C39.7849 49.069 37.6274 51.958 34.6197 53.0398V59.1526C34.6197 59.8076 34.386 60.4076 33.998 60.8739C33.5068 61.4642 32.7681 61.8401 31.9419 61.8401C31.1105 61.8401 30.3675 61.4598 29.8765 60.8631C29.4939 60.3983 29.2642 59.8024 29.2642 59.1526V52.9969C26.3173 51.8833 24.215 49.0251 24.215 45.6831ZM29.5706 45.6831C29.5706 47.0296 30.6583 48.1212 32 48.1212C33.3418 48.1212 34.4294 47.0296 34.4294 45.6831C34.4294 44.3367 33.3417 43.2451 32 43.2451C30.6583 43.2451 29.5706 44.3367 29.5706 45.6831Z" fill="#0473E9"/>
</svg>
