<svg width="61" height="75" viewBox="0 0 61 75" fill="none" xmlns="http://www.w3.org/2000/svg">
<path opacity="0.1" fill-rule="evenodd" clip-rule="evenodd" d="M60.4085 16.0846C58.5786 13.8719 56.4528 11.8787 54.0641 10.1668L58.8784 1.82203C59.0953 1.44622 59.0951 0.982937 58.8781 0.607289C58.661 0.231479 58.2601 0 57.8261 0H34.5C34.0034 0 33.5566 0.30243 33.3719 0.763769L32.0874 3.97516C14.545 5.21841 0.887695 19.8311 0.887695 37.5C0.887695 50.4685 8.32598 62.2236 19.9471 67.8066L17.8153 73.349C17.602 73.904 17.8213 74.5319 18.334 74.8328C18.5263 74.9456 18.7383 75 18.9486 75C19.2993 75 19.6447 74.8484 19.8826 74.563L24.1202 69.4777C27.4626 70.562 30.9515 71.1123 34.5 71.1123C44.9147 71.1123 54.2383 66.3511 60.4085 58.891V54.8352C54.8068 63.18 45.2839 68.6825 34.5 68.6825C31.5371 68.6825 28.62 68.2686 25.807 67.4535L27.7524 65.1191C29.9506 65.6542 32.2178 65.9287 34.5 65.9287C46.0075 65.9287 55.94 59.0561 60.4085 49.1998V39.679C59.2981 52.9992 48.1021 63.4989 34.5 63.4989C32.8165 63.4989 31.142 63.3371 29.503 63.0185L52.28 35.6861C52.5818 35.3237 52.6468 34.8198 52.4469 34.3928C52.247 33.9659 51.818 33.6933 51.3467 33.6933H40.4911L50.2346 16.8045C56.1046 21.2752 59.7962 28.0255 60.4085 35.3358V25.8083C58.4419 21.4539 55.3859 17.6055 51.4591 14.6822L52.8433 12.2828C55.8462 14.4699 58.3938 17.1392 60.4085 20.1452V16.0846ZM55.7227 2.42981H35.3226L20.7437 38.8769H31.9082C32.3085 38.8769 32.6832 39.074 32.9098 39.404C33.1362 39.734 33.1858 40.1542 33.0421 40.5279L22.8258 67.0902C22.8313 67.1346 22.8345 67.1793 22.835 67.2243L48.7528 36.1231H38.3877C37.9537 36.1231 37.5528 35.8916 37.3357 35.5158C37.1187 35.1402 37.1185 34.6769 37.3354 34.3011L55.7227 2.42981ZM18.9492 41.3067C18.5462 41.3067 18.1693 41.1068 17.9431 40.7729C17.7173 40.4391 17.6715 40.0148 17.8213 39.6407L28.8287 12.1221C23.4117 13.3298 18.4858 16.2677 14.8202 20.5097C10.7453 25.2253 8.50109 31.2593 8.50109 37.5C8.50109 47.2826 14.0341 56.245 22.6933 60.6661L30.1393 41.3067H18.9492ZM31.0756 6.50475C15.376 8.21485 3.3175 21.5082 3.3175 37.5C3.3175 49.4652 10.1431 60.3162 20.8226 65.5299L21.8154 62.9485C12.2166 58.1564 6.07128 48.2823 6.07128 37.5C6.07128 30.676 8.52538 24.0779 12.9818 18.9209C17.347 13.8693 23.3488 10.51 29.9002 9.4432L31.0756 6.50475Z" fill="#0473E9"/>
</svg>
