<svg width="61" height="67" viewBox="0 0 61 67" fill="none" xmlns="http://www.w3.org/2000/svg">
<path opacity="0.1" fill-rule="evenodd" clip-rule="evenodd" d="M61 32.1574C58.8306 32.1516 56.0317 32.15 52.4077 32.15H36.4627V24.282C36.4627 17.685 36.4326 16.1719 36.222 15.2036C35.5 11.3604 33.8453 8.30398 30.9873 5.42913C28.2496 2.67535 25.2712 1.0715 21.6008 0.314934C20.5178 0.0728689 17.4792 -0.0784372 16.3962 0.0425955C9.32629 0.799126 2.9483 6.00408 0.752136 12.8129C0 15.0523 0 15.2641 0 24.4938C0 29.8198 0.0601807 33.2091 0.150452 33.3604C0.391113 33.8446 1.17328 33.9354 5.4754 33.8749C9.04034 33.8487 9.52185 33.8452 9.8205 33.6097C9.86713 33.5729 9.9093 33.5305 9.95807 33.4815L10.3191 33.1486L10.3792 24.4333L10.3794 24.3836C10.4093 15.8686 10.41 15.6864 10.7402 14.9615C11.4623 13.2063 13.1169 11.7235 15.1928 10.967C16.6068 10.4525 18.803 10.3617 20.1568 10.7249C22.7441 11.3906 24.9402 13.4787 25.6924 15.8996C25.9631 16.7772 25.9631 17.2311 25.9631 24.4938V32.1802H23.6165C20.8788 32.1802 20.3975 32.3013 19.4949 33.0881C19.4045 33.1681 19.3211 33.2355 19.2441 33.2978C19.1356 33.3853 19.0399 33.4626 18.9553 33.5507C18.316 34.2166 18.3165 35.4967 18.3208 46.4549V46.647C18.3212 47.5574 18.3216 48.5336 18.3216 49.5806C18.3216 63.5916 18.3216 64.3784 18.5923 64.9231C18.9233 65.6796 20.0063 66.648 20.6682 66.8296C21.2776 67.0112 47.5874 67.0395 61 66.9529V64.7017C57.4974 64.7113 52.3199 64.7113 44.6458 64.7113C22.9246 64.7113 21.0593 64.7113 20.8187 64.4692C20.5779 64.2573 20.5779 63.5916 20.5779 49.5806V34.9038L20.8788 34.6919C21.1496 34.4801 23.6466 34.4499 44.7059 34.4499L44.76 34.4499C52.3715 34.4598 57.515 34.4665 61 34.4815V32.1574ZM33.9657 15.3852C32.7322 8.84866 27.9788 3.97659 21.4805 2.58456C20.217 2.31219 17.2686 2.22143 15.975 2.37273C14.3504 2.58456 12.5153 3.18978 10.8606 4.00683C6.91949 5.97384 4.12158 9.36312 2.67755 13.8721L2.28644 15.1431L2.22626 31.6355H8.06268V24.161C8.06268 19.7428 8.12286 16.3232 8.21313 15.7785C8.54407 13.8721 9.80762 11.8446 11.5826 10.5131C13.5081 9.06051 15.3432 8.39474 17.5695 8.27371C19.4949 8.18292 20.7886 8.45529 22.5034 9.30261C25.1809 10.6341 27.1364 12.9037 27.9186 15.5667C28.2195 16.5351 28.2195 16.8074 28.2195 24.3728V32.2105H34.1763V24.3728C34.1763 17.9574 34.1462 16.3232 33.9657 15.3852ZM40.8852 43.2862C41.517 42.5599 42.1187 42.1363 43.1115 41.7429C44.1042 41.3192 45.6686 41.4402 46.7818 41.9849C47.8648 42.4994 48.8877 43.5586 49.3691 44.5874C49.7 45.2834 49.7602 45.5861 49.7602 46.6755C49.7602 47.7951 49.7 48.0372 49.3691 48.7332C49.1284 49.1569 48.6169 49.8529 48.2258 50.2766L47.4738 51.0331L48.5568 54.3014C48.6049 54.4457 48.6518 54.5854 48.6973 54.7205L48.7998 55.0243C49.397 56.7932 49.7094 57.7185 49.3777 58.2013C49.0138 58.7308 47.8746 58.7277 45.4858 58.7211H45.4726C45.194 58.7203 44.8987 58.7195 44.5856 58.7195H40.4339L40.103 58.3564C39.8924 58.1446 39.7419 57.8419 39.7419 57.6906C39.7419 57.5393 40.2233 56.0262 40.7949 54.3014C41.3665 52.6067 41.8479 51.1542 41.8479 51.1239C41.8479 51.0634 41.5471 50.7305 41.1559 50.3371C39.1102 48.2793 38.9898 45.4347 40.8852 43.2862ZM47.5038 46.3123C47.4437 45.2532 46.9322 44.4664 46.0898 44.0427C44.8263 43.4678 43.1115 43.8006 42.3894 44.7387C41.6373 45.7374 41.6373 47.5228 42.3894 48.4306C42.6 48.6727 43.0212 48.9753 43.3521 49.1569C44.1945 49.5806 44.4352 49.8227 44.4352 50.2766C44.4352 50.4884 43.9839 51.9712 43.4725 53.5448L42.4797 56.4196H44.6758C45.8492 56.4196 46.842 56.3894 46.842 56.3591C46.842 56.3288 46.3907 54.9671 45.8492 53.3632C44.736 50.0648 44.7059 49.8227 45.6686 49.3687C47.0826 48.703 47.6241 47.8254 47.5038 46.3123Z" fill="#0473E9"/>
</svg>
